<svg xmlns="http://www.w3.org/2000/svg" viewBox="0 0 1200 750" width="1200" height="750" role="img" aria-label="Иллюстрация">
<rect width="1200" height="750" fill="#eaf1fd"/>
<g fill="#aecbf2" opacity="0.45"><circle cx="48" cy="48" r="2.6"/><circle cx="96" cy="48" r="2.6"/><circle cx="144" cy="48" r="2.6"/><circle cx="192" cy="48" r="2.6"/><circle cx="240" cy="48" r="2.6"/><circle cx="288" cy="48" r="2.6"/><circle cx="336" cy="48" r="2.6"/><circle cx="384" cy="48" r="2.6"/><circle cx="432" cy="48" r="2.6"/><circle cx="480" cy="48" r="2.6"/><circle cx="528" cy="48" r="2.6"/><circle cx="576" cy="48" r="2.6"/><circle cx="624" cy="48" r="2.6"/><circle cx="672" cy="48" r="2.6"/><circle cx="720" cy="48" r="2.6"/><circle cx="768" cy="48" r="2.6"/><circle cx="816" cy="48" r="2.6"/><circle cx="864" cy="48" r="2.6"/><circle cx="912" cy="48" r="2.6"/><circle cx="960" cy="48" r="2.6"/><circle cx="1008" cy="48" r="2.6"/><circle cx="1056" cy="48" r="2.6"/><circle cx="1104" cy="48" r="2.6"/><circle cx="1152" cy="48" r="2.6"/><circle cx="48" cy="96" r="2.6"/><circle cx="96" cy="96" r="2.6"/><circle cx="144" cy="96" r="2.6"/><circle cx="192" cy="96" r="2.6"/><circle cx="240" cy="96" r="2.6"/><circle cx="288" cy="96" r="2.6"/><circle cx="336" cy="96" r="2.6"/><circle cx="384" cy="96" r="2.6"/><circle cx="432" cy="96" r="2.6"/><circle cx="480" cy="96" r="2.6"/><circle cx="528" cy="96" r="2.6"/><circle cx="576" cy="96" r="2.6"/><circle cx="624" cy="96" r="2.6"/><circle cx="672" cy="96" r="2.6"/><circle cx="720" cy="96" r="2.6"/><circle cx="768" cy="96" r="2.6"/><circle cx="816" cy="96" r="2.6"/><circle cx="864" cy="96" r="2.6"/><circle cx="912" cy="96" r="2.6"/><circle cx="960" cy="96" r="2.6"/><circle cx="1008" cy="96" r="2.6"/><circle cx="1056" cy="96" r="2.6"/><circle cx="1104" cy="96" r="2.6"/><circle cx="1152" cy="96" r="2.6"/><circle cx="48" cy="144" r="2.6"/><circle cx="96" cy="144" r="2.6"/><circle cx="144" cy="144" r="2.6"/><circle cx="192" cy="144" r="2.6"/><circle cx="240" cy="144" r="2.6"/><circle cx="288" cy="144" r="2.6"/><circle cx="336" cy="144" r="2.6"/><circle cx="384" cy="144" r="2.6"/><circle cx="432" cy="144" r="2.6"/><circle cx="480" cy="144" r="2.6"/><circle cx="528" cy="144" r="2.6"/><circle cx="576" cy="144" r="2.6"/><circle cx="624" cy="144" r="2.6"/><circle cx="672" cy="144" r="2.6"/><circle cx="720" cy="144" r="2.6"/><circle cx="768" cy="144" r="2.6"/><circle cx="816" cy="144" r="2.6"/><circle cx="864" cy="144" r="2.6"/><circle cx="912" cy="144" r="2.6"/><circle cx="960" cy="144" r="2.6"/><circle cx="1008" cy="144" r="2.6"/><circle cx="1056" cy="144" r="2.6"/><circle cx="1104" cy="144" r="2.6"/><circle cx="1152" cy="144" r="2.6"/><circle cx="48" cy="192" r="2.6"/><circle cx="96" cy="192" r="2.6"/><circle cx="144" cy="192" r="2.6"/><circle cx="192" cy="192" r="2.6"/><circle cx="240" cy="192" r="2.6"/><circle cx="288" cy="192" r="2.6"/><circle cx="336" cy="192" r="2.6"/><circle cx="384" cy="192" r="2.6"/><circle cx="432" cy="192" r="2.6"/><circle cx="480" cy="192" r="2.6"/><circle cx="528" cy="192" r="2.6"/><circle cx="576" cy="192" r="2.6"/><circle cx="624" cy="192" r="2.6"/><circle cx="672" cy="192" r="2.6"/><circle cx="720" cy="192" r="2.6"/><circle cx="768" cy="192" r="2.6"/><circle cx="816" cy="192" r="2.6"/><circle cx="864" cy="192" r="2.6"/><circle cx="912" cy="192" r="2.6"/><circle cx="960" cy="192" r="2.6"/><circle cx="1008" cy="192" r="2.6"/><circle cx="1056" cy="192" r="2.6"/><circle cx="1104" cy="192" r="2.6"/><circle cx="1152" cy="192" r="2.6"/><circle cx="48" cy="240" r="2.6"/><circle cx="96" cy="240" r="2.6"/><circle cx="144" cy="240" r="2.6"/><circle cx="192" cy="240" r="2.6"/><circle cx="240" cy="240" r="2.6"/><circle cx="288" cy="240" r="2.6"/><circle cx="336" cy="240" r="2.6"/><circle cx="384" cy="240" r="2.6"/><circle cx="432" cy="240" r="2.6"/><circle cx="480" cy="240" r="2.6"/><circle cx="528" cy="240" r="2.6"/><circle cx="576" cy="240" r="2.6"/><circle cx="624" cy="240" r="2.6"/><circle cx="672" cy="240" r="2.6"/><circle cx="720" cy="240" r="2.6"/><circle cx="768" cy="240" r="2.6"/><circle cx="816" cy="240" r="2.6"/><circle cx="864" cy="240" r="2.6"/><circle cx="912" cy="240" r="2.6"/><circle cx="960" cy="240" r="2.6"/><circle cx="1008" cy="240" r="2.6"/><circle cx="1056" cy="240" r="2.6"/><circle cx="1104" cy="240" r="2.6"/><circle cx="1152" cy="240" r="2.6"/><circle cx="48" cy="288" r="2.6"/><circle cx="96" cy="288" r="2.6"/><circle cx="144" cy="288" r="2.6"/><circle cx="192" cy="288" r="2.6"/><circle cx="240" cy="288" r="2.6"/><circle cx="288" cy="288" r="2.6"/><circle cx="336" cy="288" r="2.6"/><circle cx="384" cy="288" r="2.6"/><circle cx="432" cy="288" r="2.6"/><circle cx="480" cy="288" r="2.6"/><circle cx="528" cy="288" r="2.6"/><circle cx="576" cy="288" r="2.6"/><circle cx="624" cy="288" r="2.6"/><circle cx="672" cy="288" r="2.6"/><circle cx="720" cy="288" r="2.6"/><circle cx="768" cy="288" r="2.6"/><circle cx="816" cy="288" r="2.6"/><circle cx="864" cy="288" r="2.6"/><circle cx="912" cy="288" r="2.6"/><circle cx="960" cy="288" r="2.6"/><circle cx="1008" cy="288" r="2.6"/><circle cx="1056" cy="288" r="2.6"/><circle cx="1104" cy="288" r="2.6"/><circle cx="1152" cy="288" r="2.6"/><circle cx="48" cy="336" r="2.6"/><circle cx="96" cy="336" r="2.6"/><circle cx="144" cy="336" r="2.6"/><circle cx="192" cy="336" r="2.6"/><circle cx="240" cy="336" r="2.6"/><circle cx="288" cy="336" r="2.6"/><circle cx="336" cy="336" r="2.6"/><circle cx="384" cy="336" r="2.6"/><circle cx="432" cy="336" r="2.6"/><circle cx="480" cy="336" r="2.6"/><circle cx="528" cy="336" r="2.6"/><circle cx="576" cy="336" r="2.6"/><circle cx="624" cy="336" r="2.6"/><circle cx="672" cy="336" r="2.6"/><circle cx="720" cy="336" r="2.6"/><circle cx="768" cy="336" r="2.6"/><circle cx="816" cy="336" r="2.6"/><circle cx="864" cy="336" r="2.6"/><circle cx="912" cy="336" r="2.6"/><circle cx="960" cy="336" r="2.6"/><circle cx="1008" cy="336" r="2.6"/><circle cx="1056" cy="336" r="2.6"/><circle cx="1104" cy="336" r="2.6"/><circle cx="1152" cy="336" r="2.6"/><circle cx="48" cy="384" r="2.6"/><circle cx="96" cy="384" r="2.6"/><circle cx="144" cy="384" r="2.6"/><circle cx="192" cy="384" r="2.6"/><circle cx="240" cy="384" r="2.6"/><circle cx="288" cy="384" r="2.6"/><circle cx="336" cy="384" r="2.6"/><circle cx="384" cy="384" r="2.6"/><circle cx="432" cy="384" r="2.6"/><circle cx="480" cy="384" r="2.6"/><circle cx="528" cy="384" r="2.6"/><circle cx="576" cy="384" r="2.6"/><circle cx="624" cy="384" r="2.6"/><circle cx="672" cy="384" r="2.6"/><circle cx="720" cy="384" r="2.6"/><circle cx="768" cy="384" r="2.6"/><circle cx="816" cy="384" r="2.6"/><circle cx="864" cy="384" r="2.6"/><circle cx="912" cy="384" r="2.6"/><circle cx="960" cy="384" r="2.6"/><circle cx="1008" cy="384" r="2.6"/><circle cx="1056" cy="384" r="2.6"/><circle cx="1104" cy="384" r="2.6"/><circle cx="1152" cy="384" r="2.6"/><circle cx="48" cy="432" r="2.6"/><circle cx="96" cy="432" r="2.6"/><circle cx="144" cy="432" r="2.6"/><circle cx="192" cy="432" r="2.6"/><circle cx="240" cy="432" r="2.6"/><circle cx="288" cy="432" r="2.6"/><circle cx="336" cy="432" r="2.6"/><circle cx="384" cy="432" r="2.6"/><circle cx="432" cy="432" r="2.6"/><circle cx="480" cy="432" r="2.6"/><circle cx="528" cy="432" r="2.6"/><circle cx="576" cy="432" r="2.6"/><circle cx="624" cy="432" r="2.6"/><circle cx="672" cy="432" r="2.6"/><circle cx="720" cy="432" r="2.6"/><circle cx="768" cy="432" r="2.6"/><circle cx="816" cy="432" r="2.6"/><circle cx="864" cy="432" r="2.6"/><circle cx="912" cy="432" r="2.6"/><circle cx="960" cy="432" r="2.6"/><circle cx="1008" cy="432" r="2.6"/><circle cx="1056" cy="432" r="2.6"/><circle cx="1104" cy="432" r="2.6"/><circle cx="1152" cy="432" r="2.6"/><circle cx="48" cy="480" r="2.6"/><circle cx="96" cy="480" r="2.6"/><circle cx="144" cy="480" r="2.6"/><circle cx="192" cy="480" r="2.6"/><circle cx="240" cy="480" r="2.6"/><circle cx="288" cy="480" r="2.6"/><circle cx="336" cy="480" r="2.6"/><circle cx="384" cy="480" r="2.6"/><circle cx="432" cy="480" r="2.6"/><circle cx="480" cy="480" r="2.6"/><circle cx="528" cy="480" r="2.6"/><circle cx="576" cy="480" r="2.6"/><circle cx="624" cy="480" r="2.6"/><circle cx="672" cy="480" r="2.6"/><circle cx="720" cy="480" r="2.6"/><circle cx="768" cy="480" r="2.6"/><circle cx="816" cy="480" r="2.6"/><circle cx="864" cy="480" r="2.6"/><circle cx="912" cy="480" r="2.6"/><circle cx="960" cy="480" r="2.6"/><circle cx="1008" cy="480" r="2.6"/><circle cx="1056" cy="480" r="2.6"/><circle cx="1104" cy="480" r="2.6"/><circle cx="1152" cy="480" r="2.6"/><circle cx="48" cy="528" r="2.6"/><circle cx="96" cy="528" r="2.6"/><circle cx="144" cy="528" r="2.6"/><circle cx="192" cy="528" r="2.6"/><circle cx="240" cy="528" r="2.6"/><circle cx="288" cy="528" r="2.6"/><circle cx="336" cy="528" r="2.6"/><circle cx="384" cy="528" r="2.6"/><circle cx="432" cy="528" r="2.6"/><circle cx="480" cy="528" r="2.6"/><circle cx="528" cy="528" r="2.6"/><circle cx="576" cy="528" r="2.6"/><circle cx="624" cy="528" r="2.6"/><circle cx="672" cy="528" r="2.6"/><circle cx="720" cy="528" r="2.6"/><circle cx="768" cy="528" r="2.6"/><circle cx="816" cy="528" r="2.6"/><circle cx="864" cy="528" r="2.6"/><circle cx="912" cy="528" r="2.6"/><circle cx="960" cy="528" r="2.6"/><circle cx="1008" cy="528" r="2.6"/><circle cx="1056" cy="528" r="2.6"/><circle cx="1104" cy="528" r="2.6"/><circle cx="1152" cy="528" r="2.6"/><circle cx="48" cy="576" r="2.6"/><circle cx="96" cy="576" r="2.6"/><circle cx="144" cy="576" r="2.6"/><circle cx="192" cy="576" r="2.6"/><circle cx="240" cy="576" r="2.6"/><circle cx="288" cy="576" r="2.6"/><circle cx="336" cy="576" r="2.6"/><circle cx="384" cy="576" r="2.6"/><circle cx="432" cy="576" r="2.6"/><circle cx="480" cy="576" r="2.6"/><circle cx="528" cy="576" r="2.6"/><circle cx="576" cy="576" r="2.6"/><circle cx="624" cy="576" r="2.6"/><circle cx="672" cy="576" r="2.6"/><circle cx="720" cy="576" r="2.6"/><circle cx="768" cy="576" r="2.6"/><circle cx="816" cy="576" r="2.6"/><circle cx="864" cy="576" r="2.6"/><circle cx="912" cy="576" r="2.6"/><circle cx="960" cy="576" r="2.6"/><circle cx="1008" cy="576" r="2.6"/><circle cx="1056" cy="576" r="2.6"/><circle cx="1104" cy="576" r="2.6"/><circle cx="1152" cy="576" r="2.6"/><circle cx="48" cy="624" r="2.6"/><circle cx="96" cy="624" r="2.6"/><circle cx="144" cy="624" r="2.6"/><circle cx="192" cy="624" r="2.6"/><circle cx="240" cy="624" r="2.6"/><circle cx="288" cy="624" r="2.6"/><circle cx="336" cy="624" r="2.6"/><circle cx="384" cy="624" r="2.6"/><circle cx="432" cy="624" r="2.6"/><circle cx="480" cy="624" r="2.6"/><circle cx="528" cy="624" r="2.6"/><circle cx="576" cy="624" r="2.6"/><circle cx="624" cy="624" r="2.6"/><circle cx="672" cy="624" r="2.6"/><circle cx="720" cy="624" r="2.6"/><circle cx="768" cy="624" r="2.6"/><circle cx="816" cy="624" r="2.6"/><circle cx="864" cy="624" r="2.6"/><circle cx="912" cy="624" r="2.6"/><circle cx="960" cy="624" r="2.6"/><circle cx="1008" cy="624" r="2.6"/><circle cx="1056" cy="624" r="2.6"/><circle cx="1104" cy="624" r="2.6"/><circle cx="1152" cy="624" r="2.6"/><circle cx="48" cy="672" r="2.6"/><circle cx="96" cy="672" r="2.6"/><circle cx="144" cy="672" r="2.6"/><circle cx="192" cy="672" r="2.6"/><circle cx="240" cy="672" r="2.6"/><circle cx="288" cy="672" r="2.6"/><circle cx="336" cy="672" r="2.6"/><circle cx="384" cy="672" r="2.6"/><circle cx="432" cy="672" r="2.6"/><circle cx="480" cy="672" r="2.6"/><circle cx="528" cy="672" r="2.6"/><circle cx="576" cy="672" r="2.6"/><circle cx="624" cy="672" r="2.6"/><circle cx="672" cy="672" r="2.6"/><circle cx="720" cy="672" r="2.6"/><circle cx="768" cy="672" r="2.6"/><circle cx="816" cy="672" r="2.6"/><circle cx="864" cy="672" r="2.6"/><circle cx="912" cy="672" r="2.6"/><circle cx="960" cy="672" r="2.6"/><circle cx="1008" cy="672" r="2.6"/><circle cx="1056" cy="672" r="2.6"/><circle cx="1104" cy="672" r="2.6"/><circle cx="1152" cy="672" r="2.6"/><circle cx="48" cy="720" r="2.6"/><circle cx="96" cy="720" r="2.6"/><circle cx="144" cy="720" r="2.6"/><circle cx="192" cy="720" r="2.6"/><circle cx="240" cy="720" r="2.6"/><circle cx="288" cy="720" r="2.6"/><circle cx="336" cy="720" r="2.6"/><circle cx="384" cy="720" r="2.6"/><circle cx="432" cy="720" r="2.6"/><circle cx="480" cy="720" r="2.6"/><circle cx="528" cy="720" r="2.6"/><circle cx="576" cy="720" r="2.6"/><circle cx="624" cy="720" r="2.6"/><circle cx="672" cy="720" r="2.6"/><circle cx="720" cy="720" r="2.6"/><circle cx="768" cy="720" r="2.6"/><circle cx="816" cy="720" r="2.6"/><circle cx="864" cy="720" r="2.6"/><circle cx="912" cy="720" r="2.6"/><circle cx="960" cy="720" r="2.6"/><circle cx="1008" cy="720" r="2.6"/><circle cx="1056" cy="720" r="2.6"/><circle cx="1104" cy="720" r="2.6"/><circle cx="1152" cy="720" r="2.6"/></g>
<rect x="120" y="120" width="960" height="510" rx="28" fill="#ffffff"/>
<g stroke="#aecbf2" stroke-width="2" opacity=".7">
  <path d="M200 250h800M200 350h800M200 450h800M200 550h800"/>
  <path d="M320 190v400M480 190v400M640 190v400M800 190v400M960 190v400"/>
</g>
<path d="M200 300 L360 320 L520 380 L680 470 L840 520 L1000 545" fill="none" stroke="#1d5fd6" stroke-width="10" stroke-linecap="round" stroke-linejoin="round"/>
<g fill="#1d5fd6">
  <circle cx="200" cy="300" r="14"/><circle cx="360" cy="320" r="14"/><circle cx="520" cy="380" r="14"/>
  <circle cx="680" cy="470" r="14"/><circle cx="840" cy="520" r="14"/><circle cx="1000" cy="545" r="14"/>
</g>
<path d="M200 260 L360 268 L520 300 L680 372 L840 430 L1000 470" fill="none" stroke="#22407e" stroke-width="6" stroke-dasharray="18 14" stroke-linecap="round" opacity=".75"/>
<rect x="168" y="168" width="180" height="44" rx="22" fill="#eaf1fd"/>
<circle cx="196" cy="190" r="9" fill="#1d5fd6"/><circle cx="230" cy="190" r="9" fill="#22407e" opacity=".75"/>
</svg>
